PathFileType	4	(X/Y/Z)	C:/Users/opensim2020/Desktop/walking_exp_matlab/subject01_walking04_straight_02.trc																																																																																																																															
DataRate	CameraRate	NumFrames	NumMarkers	Units	OrigDataRate	OrigDataStartFrame	OrigNumFrames																																																																																																																											
100	100	8	43	mm	100	1581	261																																																																																																																											
Frame#	Time	LFHD			RFHD			LBHD			RBHD			C7			T10			CLAV			STRN			RBAK			LSHO			LUPA			LELB			LFRM			LWRA			LWRB			LFIN			RSHO			RUPA			RELB			RFRM			RWRA			RWRB			RFIN			LASI			RASI			LPSI			RPSI			LTHI			LKNE			LTIB			LANK			LHEE			LTOE			RTHI			RKNE			RTIB			RANK			RHEE			RTOE			*39			*40			*41			*42		
		X1	Y1	Z1	X2	Y2	Z2	X3	Y3	Z3	X4	Y4	Z4	X5	Y5	Z5	X6	Y6	Z6	X7	Y7	Z7	X8	Y8	Z8	X9	Y9	Z9	X10	Y10	Z10	X11	Y11	Z11	X12	Y12	Z12	X13	Y13	Z13	X14	Y14	Z14	X15	Y15	Z15	X16	Y16	Z16	X17	Y17	Z17	X18	Y18	Z18	X19	Y19	Z19	X20	Y20	Z20	X21	Y21	Z21	X22	Y22	Z22	X23	Y23	Z23	X24	Y24	Z24	X25	Y25	Z25	X26	Y26	Z26	X27	Y27	Z27	X28	Y28	Z28	X29	Y29	Z29	X30	Y30	Z30	X31	Y31	Z31	X32	Y32	Z32	X33	Y33	Z33	X34	Y34	Z34	X35	Y35	Z35	X36	Y36	Z36	X37	Y37	Z37	X38	Y38	Z38	X39	Y39	Z39	X40	Y40	Z40	X41	Y41	Z41	X42	Y42	Z42	X43	Y43	Z43
																																																																																																																																		
164	1.63	-162.55983	1664.48083	-1487.96472	-135.59532	1666.86694	-1376.82654	-280.6843	1627.09937	-1467.08765	-255.12556	1628.92749	-1348.099	-324.39435	1431.26978	-1425.8186	-361.80356	1137.29321	-1421.82214	-182.88303	1362.18091	-1436.34827	-139.68629	1208.10669	-1444.25598	-373.51697	1235.80322	-1344.03735	-251.86824	1392.49158	-1593.97681	-307.952	1211.94702	-1673.49451	-341.54929	1064.4884	-1665.51172	-320.71194	951.8136	-1687.86401	-257.16055	826.95654	-1668.66602	-314.45093	829.38129	-1689.30334	-279.25366	751.09912	-1694.68225	-234.10521	1388.40735	-1281.24207	-260.53458	1187.89734	-1170.00879	-237.7715	1063.57312	-1158.80969	-168.04228	962.13257	-1134.9104	-53.15504	883.78363	-1166.37964	-89.37893	868.35883	-1123.73206	-25.45272	813.17114	-1129.20557	-184.50084	932.54248	-1535.74524	-183.5619	930.28931	-1317.70715	-370.755	941.09692	-1485.62939	-368.47672	949.10565	-1341.89563	-136.7836	614.91431	-1605.45789	-104.69302	485.72104	-1583.58752	-115.07404	301.01175	-1593.80347	-77.79084	79.67135	-1546.46924	-106.78305	41.70228	-1485.78931	68.86393	70.71162	-1562.32092	-287.73688	603.3938	-1274.52307	-312.2724	445.4743	-1304.58362	-398.89169	290.98761	-1301.06726	-466.22192	94.01867	-1358.33704	-522.67633	68.83182	-1406.43396	-332.91785	35.1559	-1377.41492	-148.09764	1701.922	-1397.38135	-1973.151	1023.47949	3101.99316	-2012.4408	1021.93866	3140.73438	NaN	NaN	NaN
165	1.64	-152.25859	1663.28369	-1489.28369	-125.25035	1665.7533	-1378.12219	-270.43146	1626.02527	-1468.41321	-245.02417	1627.86279	-1349.69409	-314.27054	1430.16345	-1427.01318	-351.57397	1136.12036	-1423.04517	-172.66476	1361.12683	-1437.47571	-129.46774	1206.93079	-1445.05688	-363.44449	1234.78809	-1345.11365	-241.51663	1391.17456	-1595.09192	-298.04492	1210.62073	-1674.49646	-332.14722	1063.45288	-1666.17529	-312.59988	950.63538	-1688.44934	-250.83241	824.91064	-1669.00085	-307.9913	828.13477	-1689.80859	-273.83408	749.07758	-1694.70557	-224.05202	1387.27283	-1282.45129	-249.47908	1187.12854	-1170.73999	-226.52496	1062.75134	-1159.38965	-155.46155	961.98279	-1136.02087	-39.70662	885.24963	-1168.04968	-75.69859	869.21936	-1125.26184	-10.87034	815.13684	-1131.04163	-173.71436	931.276	-1536.34265	-173.69237	929.2179	-1318.08936	-360.21115	939.85699	-1486.99377	-358.53043	948.21661	-1343.38074	-129.23457	612.48889	-1606.43945	-96.06573	484.12167	-1583.26733	-99.60674	299.84662	-1594.00659	-52.74123	79.65	-1547.45703	-81.17764	40.5418	-1487.42676	94.86347	75.93359	-1561.6731	-280.85507	603.23859	-1274.74097	-307.07379	445.39444	-1304.62805	-395.39185	291.72406	-1300.84375	-465.46939	95.61488	-1357.82898	-521.98956	70.98238	-1405.90857	-332.8017	35.16251	-1377.28809	-137.79308	1700.68579	-1398.63892	-1973.00574	1023.79309	3102.03174	-2012.52612	1022.07184	3140.62549	NaN	NaN	NaN
166	1.65	-141.9823	1662.09668	-1490.67834	-114.89988	1664.61682	-1379.54089	-260.14108	1624.93762	-1469.78979	-234.78798	1626.84241	-1351.09009	-304.13687	1429.12122	-1428.35364	-341.17847	1134.9032	-1424.31165	-162.46701	1359.95972	-1438.57153	-119.20012	1205.85132	-1445.97217	-353.31482	1233.68628	-1346.30713	-231.21626	1389.88013	-1596.28992	-287.92548	1209.23499	-1675.60645	-322.52597	1062.4032	-1667.00854	-304.13989	949.47577	-1689.1947	-244.00316	822.91907	-1669.54077	-301.16913	826.96136	-1690.573	-268.17615	747.38715	-1695.11658	-213.99588	1386.26245	-1283.66187	-238.63165	1186.39197	-1171.60632	-215.41353	1061.8999	-1160.13989	-142.66902	961.96997	-1137.30945	-26.99201	886.45068	-1169.97693	-62.27768	869.97034	-1126.84204	3.15476	816.81421	-1132.8822	-162.75761	929.9176	-1536.87305	-163.63498	928.09851	-1318.5199	-349.46021	938.65576	-1488.53564	-348.539	947.26337	-1344.82776	-121.27731	610.11829	-1607.34741	-87.43191	482.69495	-1583.19409	-84.98396	298.76157	-1594.00134	-30.05236	80.05359	-1547.86267	-57.64402	39.92294	-1488.21509	117.97145	80.84994	-1560.59656	-273.70914	602.89233	-1274.96069	-301.30142	445.0545	-1304.5553	-391.82013	292.86075	-1300.61157	-464.43106	97.26864	-1357.15332	-521.34387	73.61493	-1405.22498	-332.6235	35.13102	-1377.16589	-127.432	1699.54126	-1399.99243	-1972.98242	1023.72992	3101.97363	-2012.53296	1021.99353	3140.65063	NaN	NaN	NaN
167	1.66	-131.59526	1660.92749	-1492.12366	-104.55955	1663.47986	-1380.94263	-249.86006	1623.90369	-1471.20996	-224.5238	1625.85559	-1352.54663	-293.95615	1427.97302	-1429.69678	-330.62479	1133.63672	-1425.58618	-152.16895	1358.88	-1439.76624	-108.69645	1204.84595	-1446.97803	-343.04373	1232.52234	-1347.60864	-220.9129	1388.57214	-1597.60156	-277.65668	1207.87769	-1676.77954	-312.66534	1061.25696	-1667.97314	-295.36298	948.28784	-1690.08716	-236.72426	820.97284	-1670.13477	-293.76816	825.73053	-1691.51709	-261.89291	745.6615	-1695.61475	-203.77921	1385.45203	-1284.89563	-227.91644	1185.72119	-1172.54028	-204.45941	1061.10791	-1160.90955	-130.63448	961.72931	-1138.54041	-14.03131	887.61469	-1171.76001	-49.08163	870.61322	-1128.53845	16.86906	818.45837	-1134.91309	-151.63966	928.51208	-1537.38416	-153.47624	926.91998	-1318.90161	-338.48572	937.52698	-1490.20984	-338.30371	946.54761	-1346.60535	-112.63965	608.11871	-1608.12195	-78.41114	481.35501	-1583.2887	-70.72878	297.40369	-1593.47461	-9.82838	80.3542	-1547.41504	-36.57353	39.6497	-1487.97559	138.77097	85.03914	-1558.88086	-266.09644	602.63239	-1275.15942	-294.99207	444.77606	-1304.58276	-387.82037	293.94455	-1300.86804	-462.93488	99.04828	-1356.49011	-520.55066	76.39764	-1404.38721	-332.63065	35.21678	-1377.24963	-117.03239	1698.37683	-1401.49939	-1973.07788	1023.60565	3102.00903	-2012.55054	1021.92963	3140.59497	NaN	NaN	NaN
168	1.67	-121.29008	1659.76648	-1493.61731	-94.26563	1662.43896	-1382.56519	-239.53276	1622.90991	-1472.75293	-214.04034	1624.87683	-1353.73462	-283.75824	1426.68726	-1431.04456	-319.96222	1132.3634	-1426.849	-141.85371	1358.01025	-1441.11426	-98.13879	1203.91003	-1448.03882	-332.64584	1231.27856	-1348.9873	-210.65221	1387.3158	-1598.97144	-267.28284	1206.43005	-1678.06262	-302.63773	1060.11499	-1669.00269	-286.25577	947.07318	-1691.0636	-228.96181	819.1311	-1670.94958	-285.84338	824.4198	-1692.49353	-254.88913	743.84253	-1696.14246	-193.59166	1384.49719	-1286.28186	-217.32431	1185.03149	-1173.66248	-193.59784	1060.33484	-1161.84937	-118.82918	961.47003	-1139.87476	-1.67979	888.63214	-1173.65894	-36.48426	871.29126	-1130.37891	30.04632	819.78741	-1136.97046	-140.39011	927.02026	-1537.91711	-143.01636	925.80994	-1319.42188	-327.3826	936.56885	-1491.97266	-327.85394	945.80194	-1348.2644	-103.20078	606.41119	-1608.53479	-68.84248	480.02042	-1583.4198	-57.80031	296.21234	-1593.37341	8.04503	80.57606	-1546.36145	-18.05902	39.26117	-1486.85217	156.68459	88.02146	-1557.06946	-258.08917	602.31024	-1275.51355	-288.36996	444.55887	-1304.91406	-383.20255	294.85101	-1301.25684	-461.52036	101.24116	-1355.89709	-519.64008	79.48632	-1403.6825	-332.20154	35.04044	-1377.08362	-106.95702	1697.11304	-1403.05786	-1973.08948	1023.34753	3101.84399	-2012.45911	1021.87311	3140.68896	NaN	NaN	NaN
169	1.68	-110.9081	1658.64185	-1495.21619	-83.99374	1661.29089	-1384.05994	-229.2247	1621.92017	-1474.36682	-203.96913	1623.99829	-1355.65881	-273.51578	1425.46179	-1432.54187	-309.11301	1131.02332	-1428.11218	-131.43681	1356.97754	-1442.45935	-87.33985	1203.10291	-1449.20166	-322.10345	1230.02209	-1350.42065	-200.38774	1386.05371	-1600.42249	-256.80725	1205.00171	-1679.43274	-292.42422	1058.91016	-1670.15112	-276.8598	945.83759	-1692.20483	-220.71992	817.36237	-1671.97937	-277.57324	823.20538	-1693.56433	-247.47719	742.27087	-1697.0271	-183.44664	1383.60205	-1287.64539	-206.34549	1184.36487	-1175.04578	-182.89899	1059.63855	-1162.87781	-107.32002	961.26593	-1141.31531	10.31396	889.45282	-1175.58215	-24.12089	871.76379	-1132.36121	42.83488	820.89703	-1139.1178	-128.99594	925.54919	-1538.40576	-132.14795	924.83997	-1319.99817	-316.12204	935.68634	-1493.66064	-317.13892	945.09967	-1349.93945	-92.7263	605.01996	-1608.60364	-58.67038	478.76874	-1583.42761	-45.73761	295.01642	-1593.15686	23.2273	80.31553	-1544.849	-2.41104	38.89773	-1485.21716	171.95352	89.36785	-1555.13586	-249.67159	601.93427	-1275.79358	-281.06158	444.22729	-1305.09692	-377.93768	296.32794	-1301.11792	-459.9165	103.43853	-1355.17932	-518.44263	82.86857	-1402.74915	-331.91733	35.11072	-1377.08557	-96.40157	1696.17017	-1404.67676	-1973.04895	1023.36975	3102.0022	-2012.52063	1022.11499	3140.80444	NaN	NaN	NaN
170	1.69	-100.52995	1657.55981	-1496.86377	-73.76279	1660.23889	-1385.68701	-218.92499	1620.995	-1476.09497	-193.60251	1623.12769	-1357.03015	-263.25583	1424.18958	-1434.11731	-298.12027	1129.7334	-1429.50793	-120.96175	1356.18494	-1443.93372	-76.46196	1202.36023	-1450.43665	-311.44699	1228.73547	-1351.86682	-190.06929	1384.80286	-1601.97424	-246.22824	1203.573	-1680.83032	-281.99759	1057.68262	-1671.40186	-267.15381	944.65997	-1693.42603	-212.0224	815.71399	-1673.13013	-268.71262	821.9823	-1695.00354	-239.39581	740.73431	-1698.14148	-173.13147	1382.7583	-1289.19116	-196.04601	1183.62451	-1176.24646	-172.30838	1058.94324	-1164.021	-96.11018	961.03259	-1142.74963	22.02768	890.13477	-1177.5946	-12.21714	872.04211	-1134.10071	55.26122	821.84222	-1141.30139	-117.48933	924.18408	-1538.99048	-121.17828	923.81073	-1320.68188	-304.75726	934.89514	-1495.2417	-306.24112	944.45062	-1351.44873	-81.39473	603.89752	-1608.40417	-47.92259	477.61057	-1583.30579	-33.62346	293.63837	-1592.28943	35.9536	79.34362	-1543.19153	10.38694	38.26703	-1483.40759	184.7856	88.93021	-1553.06213	-240.58543	601.63043	-1276.24585	-273.55075	444.0614	-1305.51599	-372.92804	297.36047	-1301.39417	-457.85349	105.85302	-1354.49243	-517.0545	86.46008	-1401.72681	-331.79187	35.298	-1377.21252	-86.13	1695.12476	-1406.33215	-1973.05835	1023.34534	3101.83423	-2012.58069	1021.94232	3140.81055	NaN	NaN	NaN
171	1.7	-90.22952	1656.54932	-1498.63062	-63.48494	1659.31958	-1387.3844	-208.65056	1620.06995	-1477.87488	-183.36331	1622.24548	-1358.79565	-252.92123	1422.89478	-1435.78442	-286.89612	1128.39307	-1430.875	-110.35978	1355.30457	-1445.51624	-65.48424	1201.69543	-1451.77173	-300.67194	1227.43115	-1353.38208	-179.72691	1383.55042	-1603.60876	-235.56535	1202.13928	-1682.33203	-271.39035	1056.46851	-1672.74683	-257.14505	943.43579	-1694.78845	-202.82425	814.12561	-1674.4054	-259.41055	820.76758	-1696.41052	-230.58919	739.06409	-1699.18652	-162.75497	1381.97717	-1290.71655	-185.68709	1182.94995	-1177.66748	-161.9178	1058.29749	-1165.31958	-85.07616	960.70959	-1144.28442	33.29285	890.55725	-1179.52332	-0.59581	872.28711	-1135.99988	67.05842	822.48254	-1143.47192	-105.83447	922.9389	-1539.72083	-109.99754	922.87622	-1321.46448	-293.22244	934.13177	-1496.66833	-294.84921	943.98907	-1353.04028	-69.23279	603.07867	-1608.19739	-36.54017	476.60605	-1582.84204	-21.87266	292.11639	-1591.06409	46.17643	77.81583	-1541.48059	20.3973	36.72843	-1481.6637	195.15982	87.00764	-1550.58606	-231.29077	601.16925	-1276.61353	-265.57983	443.64337	-1305.66638	-367.11801	298.24161	-1301.1615	-455.80936	108.50989	-1353.60107	-515.52557	90.35406	-1400.71851	-331.26413	35.18724	-1377.15613	-75.79862	1694.16113	-1408.12439	-1973.11804	1023.35406	3101.94824	-2012.52246	1022.04858	3140.61279	NaN	NaN	NaN
